<svg width="14" height="14" viewBox="0 0 14 14" fill="none" xmlns="http://www.w3.org/2000/svg">
<path d="M7.93233 1.3376C7.79777 1.05833 7.51344 0.880615 7.20117 0.880615C6.88891 0.880615 6.60711 1.05833 6.47001 1.3376L4.8376 4.6964L1.19197 5.23462C0.887322 5.28032 0.633448 5.49358 0.539514 5.78553C0.445581 6.07749 0.521743 6.39992 0.740075 6.61572L3.38544 9.2332L2.76091 12.9322C2.71014 13.2368 2.83707 13.5466 3.08841 13.7268C3.33975 13.9071 3.67232 13.9299 3.9465 13.7852L7.20371 12.0462L10.4609 13.7852C10.7351 13.9299 11.0677 13.9096 11.319 13.7268C11.5703 13.544 11.6973 13.2368 11.6465 12.9322L11.0194 9.2332L13.6648 6.61572C13.8831 6.39992 13.9618 6.07749 13.8654 5.78553C13.7689 5.49358 13.5176 5.28032 13.2129 5.23462L9.56474 4.6964L7.93233 1.3376Z" fill="#E3E3E3"/>
</svg>
